<svg xmlns="http://www.w3.org/2000/svg" width="1024" height="1024" viewBox="0 0 1024 1024"><ellipse cx="512" cy="512" fill="#e94560" rx="360" ry="220"/><ellipse cx="512" cy="512" fill="#ff6b6b" rx="340" ry="200"/><ellipse cx="512" cy="430" fill="#cc5252" opacity=".7" rx="320" ry="45"/><ellipse cx="512" cy="512" fill="#cc5252" opacity=".7" rx="320" ry="45"/><ellipse cx="512" cy="594" fill="#cc5252" opacity=".7" rx="320" ry="45"/><ellipse cx="200" cy="480" fill="#e94560" rx="50" ry="160" transform="rotate(-15 200 480)"/><ellipse cx="200" cy="480" fill="#ff6b6b" rx="45" ry="150" transform="rotate(-15 200 480)"/><ellipse cx="824" cy="480" fill="#e94560" rx="50" ry="160" transform="rotate(15 824 480)"/><ellipse cx="824" cy="480" fill="#ff6b6b" rx="45" ry="150" transform="rotate(15 824 480)"/><ellipse cx="80" cy="400" fill="#e94560" rx="80" ry="100" transform="rotate(-30 80 400)"/><ellipse cx="80" cy="400" fill="#ff6b6b" rx="75" ry="95" transform="rotate(-30 80 400)"/><path fill="#cc5252" d="M 20 340 Q -30 300 -50 360 Q -30 420 20 410 L 80 385 Z"/><path fill="#cc5252" d="M 80 450 Q 130 480 150 430 Q 130 380 80 390 L 20 415 Z"/><ellipse cx="944" cy="400" fill="#e94560" rx="80" ry="100" transform="rotate(30 944 400)"/><ellipse cx="944" cy="400" fill="#ff6b6b" rx="75" ry="95" transform="rotate(30 944 400)"/><path fill="#cc5252" d="M 1004 340 Q 1054 300 1074 360 Q 1054 420 1004 410 L 944 385 Z"/><path fill="#cc5252" d="M 944 450 Q 894 480 874 430 Q 894 380 944 390 L 1004 415 Z"/><ellipse cx="410" cy="360" fill="#e94560" rx="16" ry="70"/><ellipse cx="614" cy="360" fill="#e94560" rx="16" ry="70"/><circle cx="410" cy="320" r="40" fill="#fff"/><circle cx="614" cy="320" r="40" fill="#fff"/><circle cx="410" cy="320" r="28" fill="#1a1a2e"/><circle cx="614" cy="320" r="28" fill="#1a1a2e"/><circle cx="417" cy="313" r="12" fill="#fff"/><circle cx="621" cy="313" r="12" fill="#fff"/><ellipse cx="280" cy="660" fill="#e94560" rx="22" ry="80" transform="rotate(-20 280 660)"/><ellipse cx="220" cy="730" fill="#e94560" rx="22" ry="80" transform="rotate(-10 220 730)"/><ellipse cx="180" cy="800" fill="#e94560" rx="22" ry="80" transform="rotate(0 180 800)"/><ellipse cx="220" cy="870" fill="#e94560" rx="22" ry="80" transform="rotate(10 220 870)"/><ellipse cx="744" cy="660" fill="#e94560" rx="22" ry="80" transform="rotate(20 744 660)"/><ellipse cx="804" cy="730" fill="#e94560" rx="22" ry="80" transform="rotate(10 804 730)"/><ellipse cx="844" cy="800" fill="#e94560" rx="22" ry="80" transform="rotate(0 844 800)"/><ellipse cx="804" cy="870" fill="#e94560" rx="22" ry="80" transform="rotate(-10 804 870)"/><path fill="#cc5252" d="M 300 480 Q 512 420 724 480 Q 620 540 512 550 Q 404 540 300 480 Z" opacity=".6"/><path fill="#cc5252" d="M 320 560 Q 512 490 704 560 Q 608 620 512 630 Q 416 620 320 560 Z" opacity=".6"/><line x1="400" x2="340" y1="330" y2="220" stroke="#e94560" stroke-linecap="round" stroke-width="10"/><line x1="624" x2="684" y1="330" y2="220" stroke="#e94560" stroke-linecap="round" stroke-width="10"/><circle cx="340" cy="220" r="10" fill="#ff6b6b"/><circle cx="684" cy="220" r="10" fill="#ff6b6b"/></svg>